<?xml version="1.0" encoding="utf-8"?>
<!-- Generator: Adobe Illustrator 16.0.4, SVG Export Plug-In . SVG Version: 6.00 Build 0)  -->
<!DOCTYPE svg PUBLIC "-//W3C//DTD SVG 1.1//EN" "http://www.w3.org/Graphics/SVG/1.1/DTD/svg11.dtd">
<svg version="1.1" id="Layer_1" xmlns="http://www.w3.org/2000/svg" xmlns:xlink="http://www.w3.org/1999/xlink" x="0px" y="0px"
	 width="16px" height="16px" viewBox="0 0 16 16" enable-background="new 0 0 16 16" xml:space="preserve">
<g enable-background="new    ">
	<path fill="#A7A9AC" d="M15.692,8.479l-0.597,0.712c-0.052,0.058-0.119,0.094-0.202,0.106h-0.029c-0.083,0-0.151-0.022-0.202-0.067
		L8,3.675L1.338,9.23C1.261,9.281,1.184,9.304,1.107,9.298C1.023,9.285,0.956,9.249,0.905,9.191L0.308,8.479
		C0.256,8.415,0.234,8.34,0.241,8.253c0.006-0.087,0.042-0.155,0.106-0.207l6.922-5.767C7.474,2.112,7.718,2.029,8,2.029
		c0.283,0,0.526,0.083,0.732,0.25l2.349,1.964V2.366c0-0.09,0.028-0.164,0.087-0.222c0.058-0.058,0.131-0.087,0.221-0.087h1.849
		c0.09,0,0.164,0.029,0.222,0.087s0.086,0.132,0.086,0.222v3.928l2.109,1.752c0.063,0.052,0.1,0.12,0.105,0.207
		S15.744,8.415,15.692,8.479z M13.545,9.144v4.621c0,0.167-0.061,0.312-0.182,0.434c-0.123,0.122-0.268,0.183-0.434,0.183H9.232
		v-3.697H6.768v3.697H3.071c-0.167,0-0.311-0.061-0.433-0.183s-0.183-0.267-0.183-0.434V9.144c0-0.006,0.001-0.016,0.004-0.029
		c0.003-0.013,0.005-0.021,0.005-0.028L8,4.522l5.536,4.563C13.542,9.099,13.545,9.118,13.545,9.144z"/>
</g>
</svg>
