<?xml version="1.0" encoding="utf-8"?>
<!-- Generator: Adobe Illustrator 16.0.4, SVG Export Plug-In . SVG Version: 6.00 Build 0)  -->
<!DOCTYPE svg PUBLIC "-//W3C//DTD SVG 1.1//EN" "http://www.w3.org/Graphics/SVG/1.1/DTD/svg11.dtd">
<svg version="1.1" id="Layer_1" xmlns="http://www.w3.org/2000/svg" xmlns:xlink="http://www.w3.org/1999/xlink" x="0px" y="0px"
	 width="16px" height="16px" viewBox="0 0 16 16" enable-background="new 0 0 16 16" xml:space="preserve">
<g>
	<circle fill="#A7A9AC" cx="7.998" cy="8.001" r="6.532"/>
</g>
<g enable-background="new    ">
	<g>
		<path fill="#F1F2F2" d="M7.577,11.868l0.006-0.965c-0.554-0.012-1.126-0.188-1.458-0.429l0.233-0.639
			c0.342,0.23,0.838,0.416,1.373,0.419c0.678,0.005,1.139-0.384,1.143-0.928c0.003-0.525-0.367-0.854-1.072-1.144
			C6.829,7.794,6.23,7.351,6.236,6.52c0.005-0.792,0.572-1.391,1.452-1.527l0.006-0.965l0.592,0.004L8.28,4.958
			C8.854,4.98,9.244,5.136,9.52,5.3L9.277,5.928c-0.2-0.115-0.59-0.328-1.202-0.332C7.34,5.592,7.06,6.029,7.058,6.411
			C7.055,6.908,7.406,7.158,8.235,7.508C9.217,7.915,9.71,8.415,9.704,9.265c-0.005,0.755-0.534,1.459-1.52,1.614l-0.006,0.993
			L7.577,11.868z"/>
	</g>
</g>
<g>
	<path fill="#A7A9AC" d="M8.001,15.807H7.948c-2.085-0.013-4.04-0.837-5.505-2.321c-1.465-1.483-2.264-3.449-2.25-5.534
		C0.22,3.674,3.721,0.195,7.996,0.195c4.358,0.027,7.837,3.551,7.811,7.856C15.777,12.328,12.275,15.807,8.001,15.807z M8.046,0.833
		c-3.976,0-7.19,3.195-7.216,7.122c-0.013,1.915,0.721,3.72,2.066,5.083c1.346,1.362,3.141,2.12,5.056,2.132l0.049,0.318V15.17
		c3.926,0,7.142-3.195,7.169-7.122C15.194,4.094,11.998,0.857,8.046,0.833z"/>
</g>
</svg>
