<?xml version="1.0" encoding="utf-8"?>
<!-- Generator: Adobe Illustrator 16.0.4, SVG Export Plug-In . SVG Version: 6.00 Build 0)  -->
<!DOCTYPE svg PUBLIC "-//W3C//DTD SVG 1.1//EN" "http://www.w3.org/Graphics/SVG/1.1/DTD/svg11.dtd">
<svg version="1.1" id="Layer_1" xmlns="http://www.w3.org/2000/svg" xmlns:xlink="http://www.w3.org/1999/xlink" x="0px" y="0px"
	 width="16px" height="16px" viewBox="0 0 16 16" enable-background="new 0 0 16 16" xml:space="preserve">
<g enable-background="new    ">
	<path fill="#A7A9AC" d="M15.045,3.556v10.84c0,0.294-0.106,0.548-0.321,0.762c-0.214,0.215-0.468,0.322-0.762,0.322H2.038
		c-0.293,0-0.548-0.107-0.762-0.322c-0.214-0.214-0.322-0.468-0.322-0.762V3.556c0-0.293,0.107-0.547,0.322-0.762
		s0.469-0.322,0.762-0.322h1.084V1.659c0-0.373,0.132-0.691,0.398-0.957c0.265-0.266,0.584-0.398,0.957-0.398h0.542
		c0.373,0,0.691,0.133,0.957,0.398c0.265,0.266,0.398,0.584,0.398,0.957v0.812h3.252V1.659c0-0.373,0.132-0.691,0.397-0.957
		s0.585-0.398,0.957-0.398h0.543c0.372,0,0.691,0.133,0.956,0.398c0.266,0.266,0.398,0.584,0.398,0.957v0.812h1.084
		c0.294,0,0.548,0.107,0.762,0.322C14.938,3.009,15.045,3.263,15.045,3.556z M2.038,8.163h2.439V5.724H2.038V8.163z M2.038,11.415
		h2.439v-2.71H2.038V11.415z M2.038,14.396h2.439v-2.438H2.038V14.396z M5.29,4.098V1.659c0-0.073-0.027-0.137-0.081-0.19
		s-0.117-0.081-0.19-0.081H4.477c-0.074,0-0.137,0.027-0.19,0.081c-0.054,0.054-0.081,0.117-0.081,0.19v2.438
		c0,0.073,0.027,0.137,0.081,0.19c0.053,0.054,0.117,0.081,0.19,0.081h0.542c0.073,0,0.137-0.027,0.19-0.081S5.29,4.171,5.29,4.098z
		 M5.019,8.163h2.71V5.724h-2.71V8.163z M5.019,11.415h2.71v-2.71h-2.71V11.415z M5.019,14.396h2.71v-2.438h-2.71V14.396z
		 M8.271,8.163h2.709V5.724H8.271V8.163z M8.271,11.415h2.709v-2.71H8.271V11.415z M8.271,14.396h2.709v-2.438H8.271V14.396z
		 M11.794,4.098V1.659c0-0.073-0.026-0.137-0.081-0.19c-0.053-0.054-0.117-0.081-0.189-0.081H10.98c-0.073,0-0.137,0.027-0.19,0.081
		s-0.08,0.117-0.08,0.19v2.438c0,0.073,0.026,0.137,0.08,0.19s0.117,0.081,0.19,0.081h0.543c0.072,0,0.137-0.027,0.189-0.081
		C11.768,4.234,11.794,4.171,11.794,4.098z M11.523,8.163h2.438V5.724h-2.438V8.163z M11.523,11.415h2.438v-2.71h-2.438V11.415z
		 M11.523,14.396h2.438v-2.438h-2.438V14.396z"/>
</g>
</svg>
