<?xml version="1.0" encoding="utf-8"?>
<!-- Generator: Adobe Illustrator 16.0.4, SVG Export Plug-In . SVG Version: 6.00 Build 0)  -->
<!DOCTYPE svg PUBLIC "-//W3C//DTD SVG 1.1//EN" "http://www.w3.org/Graphics/SVG/1.1/DTD/svg11.dtd">
<svg version="1.1" id="Layer_1" xmlns="http://www.w3.org/2000/svg" xmlns:xlink="http://www.w3.org/1999/xlink" x="0px" y="0px"
	 width="145.752px" height="136.256px" viewBox="0 0 145.752 136.256" enable-background="new 0 0 145.752 136.256"
	 xml:space="preserve">
<g>
	<path fill="#FFFFFF" d="M28.951,139.99C1.441,110.446,3.09,64.196,32.632,36.687c23.634-22.008,60.634-20.689,82.642,2.944
		c17.606,18.907,16.553,48.511-2.355,66.115c-15.126,14.085-38.807,13.241-52.89-1.886c-11.267-12.103-10.594-31.045,1.507-42.313
		c9.68-9.014,24.834-8.474,33.852,1.207"/>
	<path fill="#00AEEF" d="M28.951,139.99c0,0-1.345-1.03-3.868-2.962c-0.624-0.488-1.32-1.033-2.085-1.635
		c-0.724-0.662-1.476-1.446-2.32-2.279c-0.846-0.856-1.755-1.776-2.726-2.756c-0.981-1-1.777-2.168-2.764-3.366
		c-3.965-4.751-7.853-11.377-10.949-19.74c-3.051-8.358-4.995-18.621-4.357-30.024c0.233-2.836,0.341-5.791,0.992-8.708
		c0.28-1.477,0.562-2.966,0.847-4.469c0.264-1.519,0.797-2.97,1.199-4.486c0.445-1.501,0.864-3.039,1.375-4.556
		c0.612-1.48,1.229-2.973,1.851-4.477c1.158-3.073,2.824-5.945,4.434-8.935c0.419-0.733,0.784-1.517,1.263-2.22l1.434-2.129
		c0.987-1.417,1.979-2.843,2.977-4.28c1.052-1.395,2.234-2.693,3.372-4.057l1.755-2.015l0.886-1.011l1.388-1.321
		c1.076-1.039,2.158-2.085,3.246-3.134l0.412-0.397l0.618-0.49l1.251-0.976l2.544-1.932c0.846-0.612,1.749-1.338,2.573-1.841
		l2.496-1.534c1.681-1.009,3.35-2.083,5.17-2.876C56.128,4.128,73.45,1.851,90.066,5.336c8.302,1.779,16.386,5.089,23.699,9.691
		l2.741,1.739c0.907,0.591,1.735,1.29,2.601,1.938l2.565,1.998l1.271,1.015l1.179,1.11l2.341,2.247l1.16,1.132l0.579,0.569
		l0.289,0.285c0.319,0.355-0.515-0.594,0.754,0.833l0.099,0.118l1.607,1.893l0.802,0.945l0.401,0.472l0.205,0.25l0.291,0.395
		c0.781,1.055,1.533,2.132,2.275,3.216l1.1,1.635l0.539,0.822l0.424,0.757l1.652,3.036c0.543,1.016,1.098,2.024,1.521,3.098
		c1.878,4.2,3.346,8.586,4.24,13.07c1.895,8.954,1.764,18.225-0.195,26.985c-0.202,1.104-0.501,2.186-0.839,3.255l-0.984,3.209
		c-0.683,2.123-1.627,4.155-2.473,6.204c-0.952,2.004-2.062,3.93-3.115,5.859c-1.183,1.859-2.438,3.666-3.685,5.457
		c-1.375,1.695-2.78,3.357-4.209,4.977l-2.308,2.254l-1.157,1.109l-0.58,0.549l-0.291,0.273l-0.147,0.139l-0.772,0.688l-1.873,1.438
		l-0.938,0.711l-0.249,0.188l-0.403,0.275l-0.807,0.551c-1.081,0.727-2.171,1.43-3.27,2.109c-0.27,0.163-0.561,0.352-0.812,0.49
		l-0.75,0.385l-1.495,0.752c-3.957,2.072-8.209,3.37-12.416,4.361c-4.255,0.798-8.516,1.285-12.708,1.033
		c-4.188-0.096-8.268-0.885-12.17-1.924c-1.92-0.654-3.847-1.224-5.667-2.031c-1.814-0.824-3.624-1.603-5.283-2.646
		c-0.835-0.503-1.668-0.999-2.498-1.498c-0.805-0.532-1.57-1.118-2.344-1.679c-0.76-0.579-1.548-1.11-2.258-1.734
		c-0.702-0.63-1.399-1.257-2.096-1.883c-1.42-1.211-2.607-2.629-3.829-3.973l-0.898-1.018c0.049,0.059-0.861-0.979-0.509-0.59
		l-0.074-0.104l-0.146-0.207l-0.288-0.42l-1.135-1.678c-0.533-0.818-1.142-1.803-1.673-2.701l-0.798-1.377
		c-0.236-0.443-0.403-0.85-0.604-1.271c-0.375-0.84-0.748-1.676-1.118-2.508c-0.323-0.85-0.6-1.711-0.886-2.56
		c-0.619-1.679-0.92-3.437-1.314-5.123c-0.256-1.72-0.526-3.413-0.556-5.102c-0.232-6.729,1.031-13.085,3.637-18.39
		c2.574-5.307,6.112-9.646,10.031-12.762c3.758-3.067,8.494-5.443,12.663-6.188c4.228-0.856,8.132-0.703,11.423,0.04
		c3.301,0.711,6.013,1.929,8.109,3.298c1.08,0.608,1.953,1.388,2.773,1.997c0.77,0.703,1.438,1.352,2.014,1.934
		c0.543,0.633,1.008,1.185,1.393,1.667c0.381,0.486,0.641,0.948,0.876,1.288c0.446,0.688,0.679,1.044,0.679,1.044
		s-0.363-0.219-1.064-0.648c-0.355-0.203-0.76-0.488-1.295-0.748c-0.524-0.254-1.136-0.547-1.826-0.879
		c-2.764-1.173-7.105-2.374-12.104-1.622c-2.476,0.394-5.071,1.208-7.443,2.651c-2.433,1.511-4.263,3.273-6.082,6.024
		c-3.507,5.184-4.845,12.228-2.784,18.5c0.088,0.395,0.269,0.77,0.426,1.147c0.16,0.375,0.273,0.76,0.441,1.129
		c0.412,0.711,0.664,1.472,1.161,2.129l0.645,1.018l0.758,0.941c0.122,0.147,0.244,0.338,0.359,0.453l0.319,0.264
		c0.221,0.193,0.344,0.324,0.591,0.59l1.458,1.404l0.364,0.355l0.18,0.182l0.091,0.088c0.406,0.457-0.452-0.516-0.339-0.401
		l0.562,0.401c0.754,0.522,1.424,1.141,2.25,1.551l1.167,0.699c0.385,0.232,0.827,0.381,1.23,0.58
		c0.416,0.183,0.81,0.396,1.228,0.563l1.293,0.433c1.698,0.602,3.497,0.907,5.269,1.172c1.816,0.076,3.611,0.192,5.401-0.099
		c1.792-0.151,3.517-0.723,5.202-1.231c1.628-0.719,3.249-1.408,4.674-2.455l0.549-0.357l0.276-0.174
		c0.08-0.057,0.103-0.105,0.157-0.154c0.188-0.199,0.385-0.375,0.599-0.525l0.16-0.112l0.083-0.054l0.205-0.188l0.859-0.803
		l1.736-1.6c-1.225,1.086-0.305,0.258-0.562,0.481l0.059-0.076l0.122-0.147l0.242-0.299l0.49-0.59l1.002-1.154
		c0.562-0.851,1.115-1.697,1.728-2.504c2.13-3.433,3.554-7.285,4.188-11.281c0.658-3.996,0.475-8.126-0.445-12.046
		c-0.425-1.972-1.175-3.848-1.977-5.681c-0.157-0.479-0.436-0.903-0.684-1.34l-0.718-1.32l-0.174-0.331l-0.159-0.202l-0.296-0.416
		c-0.19-0.283-0.368-0.571-0.521-0.884l-0.059-0.118l-0.188-0.23l-0.396-0.476l-0.794-0.953l-1.591-1.905l-0.1-0.119
		c1.196,1.354,0.285,0.333,0.532,0.617l-0.153-0.147l-0.312-0.294l-0.618-0.595l-1.217-1.208l-0.606-0.608l-0.673-0.523
		l-1.319-1.077c-0.446-0.351-0.853-0.763-1.323-1.074l-1.425-0.928c-3.771-2.493-7.897-4.488-12.293-5.688
		c-4.39-1.168-8.957-1.683-13.48-1.496c-4.521,0.153-9.029,0.975-13.215,2.567c-1.097,0.289-2.069,0.841-3.104,1.271l-1.545,0.664
		c-0.527,0.219-0.823,0.454-1.255,0.669l-1.222,0.635l-0.627,0.305l-0.318,0.147l-0.456,0.33c-1.22,0.892-2.435,1.779-3.644,2.661
		l-0.453,0.33l-0.227,0.165c-0.545,0.476,0.613-0.556,0.464-0.422l-0.083,0.073l-0.667,0.59l-1.338,1.171
		c-0.887,0.781-1.847,1.504-2.693,2.319c-0.813,0.852-1.619,1.7-2.421,2.54l-1.239,1.248c-0.423,0.409-0.734,0.896-1.109,1.338
		c-5.937,7.116-10.136,15.301-12.563,23.518c-2.474,8.223-3.161,16.434-2.745,23.783c0.441,7.348,1.767,13.967,3.625,19.217
		c0.452,1.311,0.783,2.656,1.285,3.768c0.482,1.152,0.935,2.229,1.355,3.23c0.438,1.029,0.841,1.981,1.213,2.856
		c0.461,0.854,0.881,1.638,1.254,2.334C28.167,138.485,28.951,139.99,28.951,139.99z"/>
</g>
</svg>
